<svg width="220" height="94" viewBox="0 0 220 94" fill="none" xmlns="http://www.w3.org/2000/svg">
<g clip-path="url(#clip0_7_5663)">
<path d="M72.9055 34.25H62.5391V59.0417L72.9055 34.25Z" fill="#4C4C4D"/>
<path d="M80.1992 34.25H90.5522V59.0417L80.1992 34.25Z" fill="#4C4C4D"/>
<path d="M76.553 43.3877L83.1511 59.042H78.8221L76.8502 54.058H72.0215L76.553 43.3877Z" fill="#4C4C4D"/>
<path d="M107.465 50.0143L108.687 53.5194C108.728 53.6071 108.789 53.6477 108.897 53.6477H111.247C111.375 53.6477 111.396 53.5869 111.375 53.4586L106.52 39.9721C106.499 39.864 106.479 39.8438 106.371 39.8438H103.454C103.373 39.8438 103.325 39.9045 103.325 39.9923C103.285 40.7014 103.224 40.9175 103.136 41.1269L98.8073 53.4383C98.787 53.5869 98.8343 53.6477 98.9558 53.6477H101.056C101.184 53.6477 101.245 53.6071 101.293 53.4788L102.447 50.0143H107.465ZM103.116 47.7249C103.751 45.807 104.588 43.3488 104.926 41.9441H104.946C105.365 43.4163 106.351 46.3338 106.797 47.7249H103.116Z" fill="#4C4C4D"/>
<path d="M117.618 53.8566C118.881 53.8566 120.225 53.627 121.589 53.0394C121.697 52.9989 121.717 52.9516 121.717 52.8503C121.677 52.4721 121.629 51.9251 121.629 51.5064V38.81C121.629 38.729 121.629 38.6885 121.528 38.6885H119.239C119.151 38.6885 119.11 38.729 119.11 38.8371V43.139C118.752 43.0984 118.503 43.0782 118.205 43.0782C114.511 43.0782 112.242 45.5161 112.242 48.5619C112.242 52.0939 114.572 53.8566 117.618 53.8566ZM119.11 51.5064C118.732 51.628 118.313 51.6752 117.888 51.6752C116.213 51.6752 114.842 50.7298 114.842 48.4336C114.842 46.4008 116.254 45.1987 118.124 45.1987C118.503 45.1987 118.833 45.2393 119.11 45.3473V51.5064Z" fill="#4C4C4D"/>
<path d="M129.02 43.0791C125.866 43.0791 123.914 45.4968 123.914 48.4818C123.914 51.1494 125.467 53.8575 128.972 53.8575C131.937 53.8575 134.017 51.6762 134.017 48.4143C134.017 45.5373 132.254 43.0791 129.02 43.0791ZM128.891 45.1997C130.674 45.1997 131.431 46.7327 131.431 48.4818C131.431 50.6429 130.316 51.7167 129.02 51.7167C127.419 51.7167 126.474 50.3728 126.474 48.4345C126.474 46.4423 127.48 45.1997 128.891 45.1997Z" fill="#4C4C4D"/>
<path d="M136.385 38.6885C136.297 38.6885 136.236 38.729 136.236 38.8371V53.2082C136.236 53.269 136.297 53.3771 136.385 53.3973C137.391 53.708 138.445 53.8566 139.532 53.8566C142.645 53.8566 145.671 51.9251 145.671 48.0352C145.671 45.219 143.739 43.0782 140.714 43.0782C140.018 43.0782 139.37 43.1862 138.803 43.3753L138.776 38.8573C138.776 38.7087 138.735 38.6885 138.587 38.6885H136.385ZM143.084 48.2918C143.084 50.6217 141.49 51.7157 139.768 51.7157C139.41 51.7157 139.093 51.6955 138.803 51.6077V45.4756C139.134 45.3473 139.532 45.2393 140.268 45.2393C141.929 45.2393 143.084 46.2928 143.084 48.2918Z" fill="#4C4C4D"/>
<path d="M154.214 49.0491C155.241 49.0491 156.085 49.0288 156.375 48.9613C156.484 48.941 156.524 48.9005 156.544 48.8127C156.605 48.5831 156.632 48.1036 156.632 47.5161C156.632 45.5171 155.43 43.0791 152.323 43.0791C149.149 43.0791 147.387 45.6656 147.387 48.5831C147.387 51.1697 148.751 53.8575 152.573 53.8575C154.005 53.8575 154.93 53.6279 155.727 53.2497C155.808 53.2092 155.849 53.1416 155.849 53.0201V51.271C155.849 51.1697 155.788 51.1494 155.727 51.1899C154.93 51.5276 154.066 51.6964 153.12 51.6964C150.98 51.6964 150.007 50.5146 149.946 49.0491H154.214ZM149.946 47.2392C150.115 46.2127 150.763 45.0984 152.215 45.0984C153.816 45.0984 154.235 46.4423 154.235 47.0501C154.235 47.0703 154.235 47.1581 154.235 47.2189C154.147 47.2392 153.877 47.2392 153.08 47.2392H149.946Z" fill="#4C4C4D"/>
</g>
<defs>
<clipPath id="clip0_7_5663">
<rect width="94.2083" height="34" fill="white" transform="translate(62.5391 30)"/>
</clipPath>
</defs>
</svg>
