<svg width="220" height="94" viewBox="0 0 220 94" fill="none" xmlns="http://www.w3.org/2000/svg">
<g clip-path="url(#clip0_7_5678)">
<path d="M81.1418 56.9623C79.959 57.17 78.7554 57.2323 77.5103 57.3982L73.7126 46.2752V57.8755C72.5298 58 71.4507 58.166 70.3301 58.332V37.082H73.4845L77.8008 49.1391V37.082H81.1418V56.9623ZM87.6787 44.864C88.9654 44.864 90.9368 44.8017 92.1197 44.8017V48.122C90.6462 48.122 88.9239 48.122 87.6787 48.1843V53.1233C89.6295 52.9988 91.5802 52.8327 93.5515 52.7704V55.966L84.3583 56.6925V37.082H93.5515V40.4023H87.6787V44.864ZM105.899 40.4024H102.454V55.6758C101.333 55.6758 100.213 55.6758 99.1339 55.7172V40.4024H95.6891V37.082H105.899L105.899 40.4024ZM111.294 44.6358H115.839V47.956H111.294V55.4891H108.036V37.082H117.312V40.4023H111.294V44.6358ZM122.708 52.5837C124.596 52.6251 126.505 52.7706 128.353 52.8742V56.1531C125.385 55.9662 122.417 55.7797 119.388 55.7172V37.082H122.708V52.5837ZM131.154 56.3813C132.212 56.4437 133.333 56.506 134.412 56.6303V37.082H131.154V56.3813ZM148.959 37.082L144.747 47.1883L148.959 58.332C147.714 58.166 146.469 57.9377 145.224 57.7302L142.837 51.5877L140.41 57.2323C139.206 57.0246 138.044 56.9623 136.84 56.7963L141.115 47.0636L137.255 37.082H140.824L143.003 42.6643L145.328 37.082H148.959V37.082Z" fill="#4C4C4D"/>
</g>
<defs>
<clipPath id="clip0_7_5678">
<rect width="78.625" height="34" fill="white" transform="translate(70.3301 30)"/>
</clipPath>
</defs>
</svg>
