<svg width="220" height="94" viewBox="0 0 220 94" fill="none" xmlns="http://www.w3.org/2000/svg">
<g clip-path="url(#clip0_7_5650)">
<path d="M74.9866 32.1807C66.7714 32.1807 60.1113 38.8405 60.1113 47.0558C60.1113 55.2713 66.7714 61.9307 74.9866 61.9307C83.2027 61.9307 89.8621 55.2713 89.8621 47.0558C89.8621 38.8411 83.2027 32.1814 74.9864 32.1814L74.9866 32.1807ZM81.8083 53.6348C81.5419 54.0718 80.9699 54.2103 80.5329 53.9421C77.0404 51.8088 72.6437 51.3256 67.4657 52.5086C66.9668 52.6223 66.4694 52.3097 66.3557 51.8106C66.2415 51.3114 66.5529 50.814 67.0531 50.7004C72.7195 49.4058 77.58 49.9632 81.501 52.3594C81.938 52.6276 82.0765 53.1978 81.8083 53.6348ZM83.629 49.5845C83.2933 50.1302 82.5792 50.3025 82.0339 49.9668C78.0354 47.5091 71.9404 46.7973 67.211 48.2329C66.5977 48.4182 65.9499 48.0725 65.7637 47.4602C65.579 46.8469 65.9248 46.2003 66.5371 46.0138C71.9394 44.3746 78.6554 45.1686 83.2471 47.9903C83.7924 48.326 83.9647 49.0401 83.629 49.5847V49.5845ZM83.7853 45.3668C78.9911 42.5193 71.0812 42.2574 66.5039 43.6467C65.7688 43.8696 64.9915 43.4547 64.7688 42.7196C64.546 41.9842 64.9606 41.2075 65.6962 40.984C70.9507 39.3889 79.6856 39.6971 85.2053 42.9738C85.8679 43.3662 86.0846 44.2201 85.692 44.8803C85.3012 45.5415 84.4451 45.7594 83.786 45.3668H83.7853ZM100.582 45.9125C98.0135 45.3001 97.557 44.8702 97.557 43.9669C97.557 43.1136 98.3599 42.5393 99.5553 42.5393C100.713 42.5393 101.861 42.9754 103.065 43.8732C103.101 43.9003 103.147 43.9112 103.191 43.9041C103.238 43.8973 103.277 43.8726 103.303 43.8355L104.557 42.0677C104.609 41.9949 104.595 41.8945 104.525 41.8389C103.092 40.6891 101.479 40.1301 99.5926 40.1301C96.8198 40.1301 94.8819 41.7944 94.8819 44.1755C94.8819 46.7289 96.5534 47.633 99.4417 48.331C101.898 48.8971 102.314 49.3713 102.314 50.219C102.314 51.1586 101.476 51.7431 100.126 51.7431C98.6263 51.7431 97.4025 51.2368 96.0347 50.0538C96.001 50.0236 95.9548 50.0112 95.9121 50.0129C95.866 50.0165 95.8251 50.0378 95.7967 50.0716L94.3899 51.7448C94.3312 51.8159 94.3383 51.9189 94.4058 51.9793C95.9974 53.4003 97.9549 54.1499 100.069 54.1499C103.056 54.1499 104.987 52.5175 104.987 49.9898C104.993 47.857 103.715 46.6758 100.587 45.9148L100.582 45.9125ZM111.748 43.3795C110.453 43.3795 109.391 43.8897 108.513 44.935V43.7584C108.513 43.6655 108.439 43.5898 108.346 43.5898H106.046C105.954 43.5898 105.879 43.6655 105.879 43.7584V56.8322C105.879 56.9245 105.954 57.0009 106.046 57.0009H108.346C108.439 57.0009 108.513 56.9245 108.513 56.8322V52.7058C109.391 53.6881 110.453 54.1695 111.748 54.1695C114.155 54.1695 116.592 52.3168 116.592 48.775C116.595 45.2326 114.158 43.3793 111.75 43.3793L111.748 43.3795ZM113.917 48.775C113.917 50.5778 112.807 51.8372 111.215 51.8372C109.643 51.8372 108.456 50.521 108.456 48.775C108.456 47.0289 109.643 45.713 111.215 45.713C112.78 45.7129 113.917 47.0003 113.917 48.7749V48.775ZM122.836 43.3795C119.736 43.3795 117.308 45.7662 117.308 48.8136C117.308 51.8283 119.72 54.189 122.798 54.189C125.909 54.189 128.344 51.8106 128.344 48.775C128.344 45.7498 125.925 43.3799 122.836 43.3799V43.3795ZM122.836 51.855C121.187 51.855 119.944 50.5298 119.944 48.7741C119.944 47.0105 121.145 45.7306 122.798 45.7306C124.457 45.7306 125.708 47.0552 125.708 48.8127C125.708 50.576 124.5 51.855 122.836 51.855ZM134.962 43.5898H132.431V41.0025C132.431 40.9098 132.357 40.8341 132.264 40.8341H129.964C129.871 40.8341 129.795 40.9098 129.795 41.0025V43.5898H128.69C128.598 43.5898 128.523 43.6655 128.523 43.7584V45.7349C128.523 45.8276 128.598 45.9035 128.69 45.9035H129.795V51.0183C129.795 53.0842 130.824 54.1322 132.854 54.1322C133.678 54.1322 134.362 53.9616 135.007 53.5957C135.06 53.5673 135.092 53.5105 135.092 53.4501V51.5672C135.092 51.5104 135.062 51.4553 135.012 51.4251C134.962 51.3931 134.9 51.3913 134.849 51.418C134.406 51.64 133.978 51.7431 133.499 51.7431C132.762 51.7431 132.431 51.4073 132.431 50.6577V45.9044H134.962C135.055 45.9044 135.129 45.8287 135.129 45.7358V43.7595C135.133 43.6666 135.058 43.5909 134.964 43.5909L134.962 43.5898ZM143.78 43.6V43.2822C143.78 42.3473 144.139 41.9304 144.942 41.9304C145.421 41.9304 145.807 42.0256 146.238 42.1695C146.292 42.1862 146.347 42.1779 146.389 42.1461C146.434 42.1143 146.459 42.0633 146.459 42.0093V40.0713C146.459 39.9973 146.412 39.9317 146.34 39.9099C145.885 39.7743 145.302 39.6353 144.428 39.6353C142.306 39.6353 141.181 40.8314 141.181 43.0932V43.5799H140.076C139.984 43.5799 139.908 43.6556 139.908 43.7483V45.7349C139.908 45.8276 139.984 45.9035 140.076 45.9035H141.181V53.7911C141.181 53.8853 141.258 53.9599 141.35 53.9599H143.648C143.743 53.9599 143.817 53.8853 143.817 53.7911V45.904H145.965L149.254 53.7911C148.881 54.6189 148.514 54.7841 148.013 54.7841C147.608 54.7841 147.18 54.6633 146.745 54.4235C146.704 54.4022 146.654 54.3986 146.611 54.4111C146.567 54.427 146.53 54.459 146.512 54.5016L145.732 56.2122C145.695 56.2939 145.727 56.3881 145.805 56.4307C146.618 56.8712 147.352 57.0595 148.26 57.0595C149.958 57.0595 150.898 56.2673 151.724 54.1393L155.713 43.8302C155.734 43.7783 155.727 43.7197 155.695 43.6737C155.665 43.628 155.614 43.6005 155.559 43.6005H153.164C153.091 43.6005 153.027 43.6461 153.004 43.7135L150.551 50.7181L147.865 43.7088C147.841 43.6437 147.778 43.6005 147.709 43.6005H143.78V43.6ZM138.668 43.5898H136.367C136.275 43.5898 136.199 43.6655 136.199 43.7584V53.7911C136.199 53.8853 136.275 53.9599 136.367 53.9599H138.668C138.76 53.9599 138.836 53.8853 138.836 53.7911V43.7591C138.836 43.6662 138.762 43.5905 138.668 43.5905V43.5898ZM137.531 39.0214C136.62 39.0214 135.881 39.7589 135.881 40.67C135.881 41.5816 136.62 42.32 137.531 42.32C138.442 42.32 139.179 41.5816 139.179 40.67C139.179 39.7591 138.44 39.0214 137.531 39.0214ZM157.678 46.8158C156.768 46.8158 156.059 46.0848 156.059 45.1972C156.059 44.3096 156.777 43.5703 157.687 43.5703C158.596 43.5703 159.305 44.3011 159.305 45.188C159.305 46.0756 158.587 46.8158 157.678 46.8158ZM157.687 43.7312C156.857 43.7312 156.23 44.3902 156.23 45.1972C156.23 46.0038 156.853 46.654 157.678 46.654C158.507 46.654 159.134 45.9955 159.134 45.188C159.134 44.3814 158.511 43.7312 157.687 43.7312ZM158.045 45.3544L158.504 45.9953H158.116L157.704 45.4073H157.351V45.9953H157.028V44.2964H157.784C158.18 44.2964 158.44 44.4984 158.44 44.8384C158.441 45.1169 158.28 45.2871 158.047 45.3544H158.045ZM157.772 44.5879H157.351V45.1253H157.772C157.981 45.1253 158.108 45.0224 158.108 44.8563C158.108 44.6816 157.981 44.5879 157.772 44.5879Z" fill="#4C4C4D"/>
</g>
<defs>
<clipPath id="clip0_7_5650">
<rect width="99.1667" height="34" fill="white" transform="translate(60.0586 30)"/>
</clipPath>
</defs>
</svg>
