<svg width="220" height="94" viewBox="0 0 220 94" fill="none" xmlns="http://www.w3.org/2000/svg">
<g clip-path="url(#clip0_7_5646)">
<path d="M75.6426 55.0714L82.6228 44.2099H76.4695C76.4173 43.897 76.395 43.5544 76.395 43.1744C76.395 42.8094 76.4173 42.4742 76.4695 42.1688H86.4295L86.5562 42.504L79.5238 53.3878H86.1166C86.1688 53.7305 86.1911 54.088 86.1911 54.4456C86.1911 54.7883 86.1688 55.1161 86.1166 55.4289H75.7692L75.6426 55.0714Z" fill="#4C4C4D"/>
<path d="M95.7862 46.6908C95.7862 45.6702 95.5255 44.9699 95.0114 44.5677C94.4974 44.1728 93.745 43.9717 92.7617 43.9717C92.1583 43.9717 91.5921 44.0164 91.0706 44.1132C90.5417 44.2101 90.0352 44.3293 89.5286 44.4857C89.2008 43.9195 89.0369 43.2342 89.0369 42.4445C89.6254 42.2583 90.2661 42.1093 90.9738 42.005C91.6815 41.9007 92.3594 41.8486 93.015 41.8486C94.7358 41.8486 96.0469 42.2434 96.9483 43.0256C97.8423 43.8078 98.2967 45.0668 98.2967 46.7876V55.0864C97.6933 55.2205 96.9632 55.3695 96.0991 55.511C95.2349 55.66 94.3559 55.7271 93.4619 55.7271C92.6201 55.7271 91.8528 55.6526 91.1749 55.4961C90.497 55.3397 89.916 55.0939 89.4392 54.7437C88.9624 54.4011 88.5974 53.9615 88.3367 53.4252C88.0759 52.8888 87.9493 52.2407 87.9493 51.4883C87.9493 50.7508 88.0983 50.0952 88.4037 49.5365C88.7017 48.9778 89.1114 48.5085 89.6329 48.1434C90.1469 47.771 90.7429 47.4953 91.4208 47.3165C92.0912 47.1377 92.7989 47.0409 93.5439 47.0409C94.0952 47.0409 94.5496 47.0558 94.8997 47.0781C95.2498 47.1005 95.5478 47.1377 95.7937 47.1675V46.6908H95.7862ZM95.7862 49.2013C95.5255 49.164 95.1977 49.1342 94.8029 49.097C94.408 49.0597 94.0728 49.0448 93.7972 49.0448C92.7244 49.0448 91.9124 49.246 91.3537 49.6408C90.795 50.0356 90.5119 50.639 90.5119 51.451C90.5119 51.9651 90.6088 52.3748 90.795 52.6653C90.9812 52.9558 91.2196 53.1793 91.5027 53.3358C91.7858 53.4922 92.0987 53.5891 92.4488 53.6189C92.7915 53.6561 93.1193 53.671 93.4321 53.671C93.827 53.671 94.2367 53.6487 94.6613 53.604C95.0859 53.5593 95.4584 53.4997 95.7862 53.4103V49.2013Z" fill="#4C4C4D"/>
<path d="M101.09 42.1693C101.262 42.1321 101.44 42.1097 101.619 42.0948C101.798 42.0799 101.984 42.0725 102.178 42.0725C102.349 42.0725 102.528 42.0799 102.722 42.0948C102.908 42.1097 103.094 42.1395 103.265 42.1693C103.28 42.2066 103.303 42.3109 103.333 42.4896C103.355 42.6684 103.385 42.8621 103.407 43.0707C103.429 43.2793 103.459 43.473 103.482 43.6667C103.504 43.8604 103.519 43.9796 103.519 44.0317C103.69 43.7561 103.899 43.4879 104.137 43.2272C104.375 42.9664 104.666 42.7355 105.001 42.5269C105.336 42.3183 105.716 42.1544 106.141 42.0352C106.566 41.916 107.035 41.8564 107.549 41.8564C108.324 41.8564 109.046 41.9831 109.709 42.2438C110.372 42.5045 110.939 42.8994 111.415 43.4432C111.892 43.987 112.257 44.6798 112.525 45.5142C112.793 46.3485 112.928 47.3393 112.928 48.4791C112.928 50.7586 112.309 52.5391 111.08 53.8204C109.843 55.1017 108.1 55.7498 105.843 55.7498C105.463 55.7498 105.076 55.7275 104.681 55.6754C104.286 55.6232 103.936 55.5562 103.645 55.4668V61.5456C103.437 61.5828 103.221 61.6052 102.982 61.6201C102.751 61.635 102.535 61.6424 102.349 61.6424C102.163 61.6424 101.947 61.635 101.716 61.6201C101.485 61.6052 101.269 61.5754 101.083 61.5456V42.1693H101.09ZM103.653 53.2617C103.981 53.3809 104.316 53.4703 104.659 53.5224C105.001 53.5746 105.448 53.5969 106.007 53.5969C106.625 53.5969 107.199 53.5001 107.713 53.2989C108.227 53.0978 108.674 52.7924 109.046 52.3826C109.419 51.9655 109.709 51.444 109.925 50.8182C110.141 50.1925 110.246 49.4401 110.246 48.5834C110.246 47.2052 109.992 46.1101 109.486 45.2981C108.979 44.4861 108.145 44.0838 106.99 44.0838C106.558 44.0838 106.148 44.1583 105.746 44.3148C105.351 44.4712 104.994 44.7022 104.688 45.015C104.375 45.3279 104.13 45.7153 103.936 46.1921C103.742 46.6688 103.653 47.2276 103.653 47.8831V53.2617Z" fill="#4C4C4D"/>
<path d="M116.116 44.1801H114.432C114.395 44.0386 114.373 43.8821 114.358 43.7034C114.343 43.5246 114.336 43.3458 114.336 43.1744C114.336 43.0031 114.343 42.8243 114.358 42.6455C114.373 42.4667 114.403 42.3028 114.432 42.1688H118.626V55.4364C118.44 55.4736 118.224 55.496 117.993 55.5109C117.762 55.5258 117.546 55.5332 117.36 55.5332C117.189 55.5332 116.988 55.5258 116.749 55.5109C116.518 55.496 116.302 55.4662 116.116 55.4364V44.1801Z" fill="#4C4C4D"/>
<path d="M124.132 49.4324C124.169 50.8776 124.541 51.9429 125.257 52.6134C125.972 53.2838 127.03 53.619 128.423 53.619C129.644 53.619 130.814 53.403 131.916 52.9709C132.058 53.2317 132.17 53.5445 132.252 53.917C132.341 54.2895 132.386 54.6545 132.408 55.0196C131.842 55.2579 131.216 55.4442 130.531 55.5634C129.853 55.6826 129.093 55.7422 128.266 55.7422C127.059 55.7422 126.024 55.5708 125.16 55.2356C124.296 54.9004 123.588 54.4236 123.029 53.8127C122.47 53.2019 122.061 52.4793 121.8 51.6375C121.539 50.8031 121.413 49.8868 121.413 48.8811C121.413 47.8978 121.539 46.9815 121.785 46.1248C122.031 45.2681 122.418 44.5306 122.932 43.8974C123.446 43.2716 124.102 42.765 124.884 42.4C125.666 42.0275 126.597 41.8413 127.663 41.8413C128.579 41.8413 129.376 41.9977 130.069 42.3106C130.762 42.6235 131.335 43.0481 131.805 43.5919C132.267 44.1358 132.624 44.7839 132.863 45.5288C133.101 46.2812 133.228 47.0932 133.228 47.9723C133.228 48.2107 133.22 48.4714 133.198 48.7321C133.183 49.0003 133.16 49.2313 133.146 49.4175H124.132V49.4324ZM130.702 47.5179C130.702 47.0336 130.635 46.5718 130.508 46.1322C130.382 45.6927 130.188 45.3128 129.942 44.985C129.689 44.6572 129.376 44.3965 128.989 44.1954C128.601 43.9942 128.139 43.8974 127.603 43.8974C126.553 43.8974 125.748 44.2177 125.182 44.8509C124.623 45.4916 124.281 46.3781 124.161 47.5179H130.702Z" fill="#4C4C4D"/>
<path d="M136.058 42.1688C136.245 42.1315 136.431 42.1092 136.602 42.0943C136.774 42.0794 136.952 42.0719 137.146 42.0719C137.332 42.0719 137.526 42.0794 137.712 42.0943C137.898 42.1092 138.077 42.139 138.226 42.1688C138.278 42.4295 138.331 42.7647 138.383 43.1893C138.435 43.614 138.457 43.9715 138.457 44.2621C138.822 43.6736 139.299 43.167 139.895 42.7349C140.491 42.3028 141.251 42.0868 142.182 42.0868C142.323 42.0868 142.465 42.0943 142.607 42.1017C142.756 42.1092 142.875 42.1241 142.979 42.139C143.016 42.2954 143.039 42.4593 143.054 42.6306C143.068 42.802 143.076 42.9808 143.076 43.1744C143.076 43.383 143.061 43.5991 143.039 43.8226C143.016 44.046 142.979 44.2621 142.949 44.4707C142.808 44.4334 142.666 44.4185 142.525 44.4185C142.376 44.4185 142.264 44.4185 142.174 44.4185C141.713 44.4185 141.266 44.4856 140.841 44.6122C140.416 44.7388 140.036 44.9698 139.701 45.2976C139.366 45.6253 139.098 46.0723 138.897 46.6459C138.696 47.2121 138.599 47.9496 138.599 48.8436V55.4364C138.412 55.4736 138.196 55.496 137.965 55.5109C137.735 55.5258 137.519 55.5332 137.332 55.5332C137.146 55.5332 136.93 55.5258 136.699 55.5109C136.468 55.496 136.245 55.4662 136.036 55.4364V42.1688H136.058Z" fill="#4C4C4D"/>
<path d="M121.062 34.3619H118.559L120.332 32.5889C120.191 32.3952 120.034 32.209 119.87 32.0377C119.699 31.8663 119.52 31.7099 119.319 31.5758L117.546 33.3488V30.8457C117.315 30.8085 117.077 30.7861 116.831 30.7861H116.824C116.578 30.7861 116.339 30.8085 116.108 30.8457V33.3488L114.335 31.5758C114.142 31.7173 113.955 31.8738 113.784 32.0377C113.613 32.209 113.464 32.3878 113.322 32.5889L115.103 34.3619H112.6C112.6 34.3619 112.54 34.8312 112.54 35.0771C112.54 35.3229 112.562 35.5613 112.6 35.7922H115.103L113.33 37.5652C113.605 37.9526 113.948 38.2953 114.343 38.5784L116.116 36.8054V39.3084C116.347 39.3457 116.585 39.368 116.831 39.368H116.838C117.084 39.368 117.323 39.3457 117.554 39.3084V36.8054L119.327 38.5784C119.52 38.4368 119.707 38.2804 119.878 38.1165C120.049 37.9451 120.206 37.7664 120.34 37.5652L118.567 35.7922H121.07C121.107 35.5613 121.129 35.3229 121.129 35.0771V35.0696C121.122 34.8312 121.107 34.5929 121.062 34.3619ZM117.904 35.0845C117.904 35.4049 117.844 35.7103 117.74 35.9934C117.457 36.0977 117.151 36.1573 116.831 36.1573C116.511 36.1573 116.205 36.0977 115.922 35.9934C115.818 35.7103 115.758 35.4049 115.758 35.0845V35.0771C115.758 34.7567 115.818 34.4513 115.922 34.1682C116.205 34.0639 116.511 34.0043 116.831 34.0043C117.151 34.0043 117.457 34.0639 117.74 34.1682C117.844 34.4513 117.904 34.7567 117.904 35.0845Z" fill="#4C4C4D"/>
</g>
<defs>
<clipPath id="clip0_7_5646">
<rect width="68" height="34" fill="white" transform="translate(75.6426 30)"/>
</clipPath>
</defs>
</svg>
