<svg width="220" height="94" viewBox="0 0 220 94" fill="none" xmlns="http://www.w3.org/2000/svg">
<g clip-path="url(#clip0_7_5654)">
<path fill-rule="evenodd" clip-rule="evenodd" d="M131.393 44.591C131.658 45.0483 131.745 45.5686 131.773 46.1536L131.811 46.9333V52.3851L131.849 53.1656C131.926 54.4402 132.866 55.3827 134.151 55.4629L134.927 55.5013V46.9333L134.966 46.1536C134.997 45.5752 135.083 45.0451 135.353 44.5845C135.627 44.112 136.021 43.7201 136.494 43.4479C136.968 43.1758 137.505 43.0331 138.051 43.0341C138.597 43.035 139.134 43.1797 139.606 43.4536C140.079 43.7275 140.471 44.1209 140.744 44.5943C141.009 45.0516 141.092 45.5817 141.123 46.1536L141.162 46.9308V52.3851L141.2 53.1656C141.281 54.4468 142.213 55.3892 143.502 55.4629L144.278 55.5013V46.1536C144.278 44.5007 143.622 42.9154 142.453 41.7464C141.285 40.5773 139.699 39.9203 138.047 39.9196C137.162 39.9187 136.287 40.1065 135.481 40.4707C134.675 40.8348 133.955 41.3668 133.371 42.0311C132.787 41.3671 132.067 40.8352 131.261 40.471C130.455 40.1067 129.58 39.9185 128.696 39.9188C127.401 39.9188 126.2 40.3115 125.206 40.9897C124.598 40.3123 123.24 39.9188 122.461 39.9188V55.5013L123.24 55.4629C124.545 55.377 125.487 54.4599 125.538 53.1656L125.579 52.3851V46.9333L125.618 46.1536C125.651 45.5654 125.732 45.0483 125.998 44.5877C126.273 44.1156 126.666 43.7237 127.14 43.4513C127.613 43.1788 128.149 43.0352 128.696 43.035C129.242 43.0351 129.779 43.1789 130.252 43.452C130.726 43.7251 131.119 44.1179 131.393 44.591ZM78.0498 55.4637L78.8294 55.5013H90.5161L90.4777 54.7241C90.3721 53.4429 89.4648 52.507 88.1796 52.4236L87.3999 52.3851H80.3887L89.7364 43.0341L89.698 42.2578C89.6375 40.9635 88.6917 40.0284 87.3999 39.9572L86.6203 39.9221L74.9336 39.9188L74.972 40.6984C75.0743 41.9673 75.9947 42.9229 77.2693 42.9965L78.0498 43.035H85.061L75.7133 52.3859L75.7517 53.1656C75.8286 54.45 76.7555 55.3802 78.0498 55.4629V55.4637ZM119.402 42.1997C120.125 42.9231 120.7 43.7821 121.091 44.7274C121.483 45.6728 121.684 46.686 121.684 47.7092C121.684 48.7325 121.483 49.7457 121.091 50.691C120.7 51.6364 120.125 52.4953 119.402 53.2188C117.94 54.6796 115.958 55.5001 113.891 55.5001C111.824 55.5001 109.842 54.6796 108.38 53.2188C105.338 50.1762 105.338 45.2422 108.38 42.1997C109.103 41.4764 109.962 40.9027 110.906 40.5112C111.851 40.1197 112.864 39.9181 113.886 39.918C114.91 39.9173 115.925 40.1185 116.871 40.5101C117.818 40.9018 118.678 41.4762 119.402 42.2005V42.1997ZM117.197 44.4061C118.073 45.2831 118.566 46.4723 118.566 47.7121C118.566 48.9519 118.073 50.141 117.197 51.0181C116.32 51.8944 115.131 52.3867 113.891 52.3867C112.651 52.3867 111.462 51.8944 110.585 51.0181C109.709 50.141 109.216 48.9519 109.216 47.7121C109.216 46.4723 109.709 45.2831 110.585 44.4061C111.462 43.5297 112.651 43.0375 113.891 43.0375C115.131 43.0375 116.32 43.5297 117.197 44.4061ZM97.5338 39.918C98.5565 39.9182 99.5691 40.1199 100.514 40.5116C101.459 40.9032 102.317 41.4771 103.04 42.2005C106.083 45.2422 106.083 50.1771 103.04 53.2188C101.578 54.6796 99.5956 55.5001 97.5289 55.5001C95.4622 55.5001 93.4801 54.6796 92.0182 53.2188C88.9756 50.1762 88.9756 45.2422 92.0182 42.1997C92.7411 41.4764 93.5994 40.9027 94.5441 40.5112C95.4888 40.1197 96.5014 39.9181 97.524 39.918H97.5338ZM100.835 44.4045C101.712 45.2815 102.204 46.4708 102.204 47.7109C102.204 48.9509 101.712 50.1402 100.835 51.0173C99.9579 51.8936 98.7688 52.3859 97.5289 52.3859C96.2891 52.3859 95.1 51.8936 94.223 51.0173C93.3466 50.1402 92.8543 48.9511 92.8543 47.7113C92.8543 46.4714 93.3466 45.2823 94.223 44.4053C95.1 43.5289 96.2891 43.0366 97.5289 43.0366C98.7688 43.0366 99.9579 43.5289 100.835 44.4053V44.4045Z" fill="#4C4C4D"/>
</g>
<defs>
<clipPath id="clip0_7_5654">
<rect width="69.4166" height="34" fill="white" transform="translate(74.9336 30)"/>
</clipPath>
</defs>
</svg>
