<svg width="39" height="43" viewBox="0 0 39 43" fill="none" xmlns="http://www.w3.org/2000/svg">
<path fill-rule="evenodd" clip-rule="evenodd" d="M13.0489 40.1279C9.32492 39.0762 5.42609 38.5457 1.64397 38.0597C0.829355 37.9578 0.0730442 38.5264 0.0148577 39.3274C-0.101515 40.129 0.480691 40.8622 1.23712 40.9641C4.90286 41.4319 8.68465 41.9326 12.234 42.945C12.9904 43.1646 13.8054 42.7126 14.0381 41.9349C14.2709 41.1579 13.8053 40.348 13.0489 40.1279Z" fill="#262626"/>
<path fill-rule="evenodd" clip-rule="evenodd" d="M24.3375 25.2168C18.3443 19.0619 11.5947 13.6993 5.71783 7.3793C5.19415 6.78905 4.26317 6.75743 3.6813 7.30845C3.09944 7.86005 3.04148 8.78758 3.62334 9.37783C9.50018 15.716 16.2498 21.0961 22.243 27.2692C22.8249 27.8454 23.7556 27.8535 24.3375 27.2867C24.8612 26.7205 24.9194 25.793 24.3375 25.2168Z" fill="#262626"/>
<path fill-rule="evenodd" clip-rule="evenodd" d="M35.5681 1.54341C35.7427 5.06616 35.9169 8.58891 36.0915 12.1123C36.0915 12.9192 36.7901 13.5422 37.6047 13.503C38.4193 13.4631 39.0008 12.7763 39.0008 11.9688C38.8262 8.44018 38.652 4.91216 38.4775 1.38413C38.4193 0.577224 37.7209 -0.0417174 36.9063 0.00219986C36.1499 0.0461172 35.5099 0.737085 35.5681 1.54341Z" fill="#262626"/>
</svg>
