<svg width="53" height="52" viewBox="0 0 53 52" fill="none" xmlns="http://www.w3.org/2000/svg">
<g clip-path="url(#clip0_331_631)">
<path d="M26.2154 21.2485C25.2345 21.2758 24.2764 21.3948 23.3489 21.5961C19.5084 22.6936 16.6904 26.2174 16.6904 30.3835C16.6904 35.4241 20.8157 39.5249 25.8862 39.5249C30.9567 39.5249 35.0819 35.424 35.0819 30.3835C35.082 25.4525 31.1341 21.4215 26.2154 21.2485Z" fill="white"/>
<path d="M44.382 7.61587C39.4415 2.70471 32.8729 0 25.8862 0C18.8995 0 12.331 2.70471 7.39068 7.61587C3.72426 11.2605 1.28179 15.797 0.265137 20.733C3.70281 14.5288 10.3454 10.3155 17.96 10.3155C28.9856 10.3155 37.9735 19.1483 38.1432 30.0694C38.1459 30.1738 38.1472 30.2785 38.1472 30.3835C38.1472 37.1043 32.6469 42.5722 25.8862 42.5722C19.1255 42.5722 13.6252 37.1042 13.6252 30.3834C13.6252 29.5576 13.7087 28.7509 13.8669 27.9707C12.1721 30.4376 11.1798 33.4172 11.1798 36.6233C11.1798 44.9807 17.9195 51.8024 26.2795 52C33.1189 51.9004 39.5343 49.2077 44.3818 44.3888C49.3222 39.4776 52.0431 32.9479 52.0431 26.0023C52.0431 19.0568 49.3222 12.5271 44.382 7.61587Z" fill="white"/>
<path d="M30.9173 19.2686C27.7752 15.6539 23.1319 13.3625 17.9603 13.3625C8.51929 13.3625 0.838379 20.9981 0.838379 30.3834C0.838379 32.759 1.32745 35.072 2.26911 37.2076C3.53473 39.8389 5.2549 42.2654 7.39097 44.3887C8.86982 45.8588 10.4955 47.1295 12.2336 48.1908C9.65936 45.026 8.11492 41.0008 8.11492 36.6232C8.11492 27.842 14.3256 20.4768 22.6093 18.6376C23.6529 18.3495 24.7519 18.1948 25.8865 18.1948C26.0035 18.1948 26.12 18.1968 26.2361 18.2001C26.3747 18.197 26.5135 18.1948 26.6528 18.1948V18.2193C28.164 18.3125 29.6022 18.678 30.9173 19.2686Z" fill="white"/>
</g>
<defs>
<clipPath id="clip0_331_631">
<rect width="52.3088" height="52" fill="white"/>
</clipPath>
</defs>
</svg>
