<svg width="41" height="40" viewBox="0 0 41 40" fill="none" xmlns="http://www.w3.org/2000/svg">
<g clip-path="url(#clip0_199_5291)">
<path d="M20.2646 16.3334C19.5064 16.3543 18.7657 16.4458 18.0488 16.6005C15.0801 17.4441 12.9019 20.1528 12.9019 23.3552C12.9019 27.2299 16.0906 30.3821 20.01 30.3821C23.9295 30.3821 27.1182 27.2298 27.1182 23.3552C27.1183 19.5649 24.0666 16.4663 20.2646 16.3334Z" fill="#0C0C0C" fill-opacity="0.9"/>
<path d="M34.3069 5.85417C30.4879 2.07906 25.4105 0 20.0099 0C14.6093 0 9.53185 2.07906 5.71304 5.85417C2.87894 8.65577 0.990937 12.1429 0.205078 15.937C2.86236 11.168 7.99701 7.92933 13.883 7.92933C22.4057 7.92933 29.3532 14.7189 29.4844 23.1138C29.4865 23.194 29.4875 23.2745 29.4875 23.3553C29.4875 28.5214 25.2358 32.7244 20.0099 32.7244C14.7839 32.7244 10.5323 28.5213 10.5323 23.3552C10.5323 22.7204 10.5968 22.1003 10.719 21.5006C9.40905 23.3968 8.64198 25.6872 8.64198 28.1517C8.64198 34.5758 13.8517 39.8195 20.3139 39.9714C25.6007 39.8948 30.5597 37.8251 34.3067 34.1208C38.1256 30.3457 40.2288 25.3264 40.2288 19.9875C40.2288 14.6486 38.1256 9.62937 34.3069 5.85417Z" fill="#0C0C0C" fill-opacity="0.9"/>
<path d="M23.8986 14.8115C21.4698 12.0329 17.8806 10.2716 13.883 10.2716C6.58521 10.2716 0.647949 16.1409 0.647949 23.3552C0.647949 25.1813 1.02599 26.9593 1.75388 28.6008C2.7322 30.6235 4.06187 32.4887 5.71303 34.1208C6.85616 35.2509 8.11278 36.2277 9.45634 37.0434C7.46646 34.6107 6.27263 31.5167 6.27263 28.1516C6.27263 21.4017 11.0734 15.7402 17.4766 14.3264C18.2833 14.105 19.1328 13.9861 20.0099 13.9861C20.1003 13.9861 20.1903 13.9876 20.2801 13.9901C20.3872 13.9878 20.4945 13.9861 20.6022 13.9861V14.0049C21.7703 14.0765 22.882 14.3575 23.8986 14.8115Z" fill="#0C0C0C" fill-opacity="0.9"/>
</g>
<defs>
<clipPath id="clip0_199_5291">
<rect width="40.4341" height="39.9714" fill="white"/>
</clipPath>
</defs>
</svg>
